          <svg
            class="h-6 w-6 text-primary"
            fill="currentColor"
            viewBox="0 0 24 24"
            xmlns="http://www.w3.org/2000/svg"
          >
            <path
              d="M19.7781 17.0728V6.92725C19.7781 7.85401 18.4386 8.67188 16.3963 9.15944C15.1457 9.45802 13.6315 9.63276 12 9.63276C10.3685 9.63276 8.85429 9.45802 7.60366 9.15944C5.56138 8.67188 4.22187 7.85401 4.22187 6.92725V17.0728C4.22187 17.9995 5.56138 18.8174 7.60366 19.305C8.85429 19.6035 10.3685 19.7782 12 19.7782C13.6315 19.7782 15.1457 19.6035 16.3963 19.305C18.4386 18.8174 19.7781 17.9995 19.7781 17.0728Z"
              fill="currentColor"
              opacity="0.6"
            ></path>
            <path
              d="M19.7781 9.39385C19.1588 9.69628 18.4251 9.94193 17.6285 10.1321C16.2918 10.4513 14.6986 10.6328 12 10.6328C9.30136 10.6328 7.70817 10.4513 6.37146 10.1321C5.57488 9.94193 4.84119 9.69628 4.22187 9.39385V17.0637C4.22582 17.0772 4.27137 17.2434 4.68951 17.5135C5.15901 17.8239 5.87458 18.1027 6.83584 18.3322C8.00035 18.6102 9.43559 18.7782 12 18.7782C14.5644 18.7782 15.9996 18.6102 17.1642 18.3322C18.1254 18.1027 18.841 17.8239 19.3105 17.5135C19.7286 17.2434 19.7742 17.0772 19.7781 17.0637V9.39385Z"
              fill="currentColor"
              opacity="0.4"
            ></path>
            <path clip-rule="evenodd"
              d="M5.22423 6.92594C5.23746 6.96353 5.30913 7.12297 5.68951 7.36803C6.13898 7.6631 6.8246 7.95723 7.82173 8.18324C9.02237 8.47164 10.4061 8.63276 12 8.63276C13.5939 8.63276 14.9776 8.47164 16.1783 8.18324C17.1754 7.95723 17.861 7.6631 18.3105 7.36803C18.6909 7.12297 18.7625 6.96353 18.7758 6.92594C18.7641 6.89382 18.7184 6.79764 18.5317 6.64654C18.2599 6.42674 17.8144 6.18235 17.1715 5.95874C15.8949 5.51446 14.0667 5.22188 12 5.22188C9.93332 5.22188 8.10514 5.51446 6.8285 5.95874C6.18561 6.18235 5.74013 6.42674 5.46825 6.64654C5.28159 6.79764 5.23591 6.89382 5.22423 6.92594ZM20.7781 6.92725V17.0728C20.7781 18.0539 20.0789 18.7521 19.3958 19.1934C18.675 19.6586 17.7096 20.0195 16.6285 20.2755C15.2918 20.5947 13.6986 20.7763 11.9981 20.7763C10.3014 20.7763 8.70821 20.5947 7.3715 20.2755C6.29037 20.0195 5.32504 19.6586 4.60421 19.1934C3.92113 18.7521 3.22187 18.0539 3.22187 17.0728V6.92725C3.22187 6.13419 3.68661 5.52271 4.1979 5.09181C4.71612 4.65525 5.40685 4.31571 6.1715 4.07424C7.71427 3.53455 9.77443 3.22188 12 3.22188C14.2256 3.22188 16.2857 3.53455 17.8285 4.07424C18.5931 4.31571 19.2839 4.65525 19.8021 5.09181C20.3134 5.52271 20.7781 6.13419 20.7781 6.92725Z"
              fill="currentColor"
              fill-rule="evenodd"
            ></path>
          </svg>